<?xml version="1.0" encoding="UTF-8"?>
<svg id="Layer_1" data-name="Layer 1" xmlns="http://www.w3.org/2000/svg" viewBox="0 0 160 70.31">
  <defs>
    <style>
      .cls-1 {
        fill: #fefefe;
      }
    </style>
  </defs>
  <path class="cls-1" d="M26.23,48.39s-.34-.49-.43-.59c-2.03-2.18-5.48-3.87-8.51-3.02-1.11.31-2.12,1.21-1.51,2.45.56,1.15,3.67,1.95,4.87,2.41,4.19,1.63,7.55,3.49,6.65,8.67-1.36,7.82-13.58,8.44-19.42,6.04-3.76-1.54-6.24-5.71-2.05-8.5,1.05-.7.89-.26,1.61.39,2.23,2.02,6.28,3.85,9.31,2.94,1.86-.56,1.97-2.54.25-3.48-1.98-1.08-4.33-1.43-6.38-2.71-5.27-3.3-3.79-10.38,1.27-13.07,4.1-2.18,13.02-2.14,16.49,1.26,2.26,2.21,1.45,5.31-1.1,6.84-.2.12-.86.49-1.06.37Z"/>
  <path class="cls-1" d="M26.32,21.43c2.01,2.63,1.18,6.48-.86,8.84-3.74,4.34-14.18,4.32-18.85,1.65-2.3-1.32-3.87-3.88-2.29-6.41.33-.52,1.68-1.79,2.28-1.85.19-.02.88.83,1.09,1.02,2.12,1.91,6.39,3.62,9.2,2.66,1.33-.45,1.83-2.07.71-3.04s-4.06-1.63-5.55-2.34c-2.33-1.11-4.24-2.67-4.62-5.36-.52-3.61,1.24-6.73,4.37-8.45,3.86-2.11,11.67-2.06,15.4.33,3,1.92,3.47,5.21.5,7.45-.21.16-1.21.79-1.42.69-1.85-2.47-4.95-4.02-8.08-3.8-.82.06-2.02.43-2.4,1.2-.77,1.55.77,2.28,1.94,2.79,3.06,1.33,6.4,1.78,8.57,4.61Z"/>
  <path class="cls-1" d="M40.11,48.03c.18.05.13-.05.17-.1.45-.51.91-1.12,1.44-1.55,3.79-3.08,10.39-2.45,11.28,3.06.55,3.38-1.09,6.47-1.74,9.62-.21,1.01-.65,2.62.4,3.28.58.37,1.24.1.83.95-1.41,2.88-7.99,3.05-9.26-.03-.61-1.48-.18-3.34.19-4.83.44-1.74,1.74-4.68,1.06-6.4-.82-2.06-4.56-1.25-5.38.51-.41.88-.69,3.29-.94,4.39-.4,1.73-.76,3.87-1.32,5.59-.8,2.44-2.28,2.88-4.73,2.7-2.61-.19-3.4-1.39-3.01-3.9.28-1.82.87-3.69,1.25-5.43,1.13-5.19,2.09-10.35,3.34-15.5.29-1.19.87-2.92,2.12-3.44,1.07-.44,3.43-.39,4.51.04,1.37.55,1.72,1.91,1.44,3.27l-1.64,7.78Z"/>
  <path class="cls-1" d="M72.71,48.03c.17.03.12-.01.17-.1,1.36-2.39,3.21-3.31,6.02-3.05.56.05,2.12.39,1.98,1.13-.62,2.69-1.13,5.41-1.72,8.11-.4,1.83-1,3.82-1.32,5.74-.24,1.44-.43,3.07,1.41,3.39.11.1-.61,1.02-.71,1.12-1.37,1.32-4.6,1.4-6.25.61-1.39-.66-2.16-1.93-2.2-3.46-.17-.04-.12.03-.17.09-.73.93-1.33,1.77-2.36,2.44-3.67,2.39-9.3,1.84-11.41-2.31-2.91-5.74.66-14.4,6.73-16.62,3.42-1.25,8.1-.64,9.84,2.89ZM70.28,51.28c-1.09-1.06-3.09-1.06-4.41-.44-3.68,1.71-4.58,9.16.86,8.59,1.77-.19,3.27-1.59,3.84-3.22.35-1.01.35-2.16.65-3.09.02-.07.14-.06.15-.1.06-.21-.11-.17-.15-.24-.29-.53-.47-1.05-.93-1.5Z"/>
  <path class="cls-1" d="M83.05,23.09c-.15.65-.44,1.33-.42,2.09.07,2.88,3.66,2.85,5.22,1.09.69-.78.71-2.17.94-3.17.56-2.32.99-4.97,1.67-7.28.21-.72.86-1.82,1.49-2.27,1.01-.71,3.81-.6,4.93-.13,1.35.56,1.61,1.79,1.44,3.12-.32,2.53-1.18,5.25-1.71,7.68-.3,1.39-1.14,4.56-.96,5.81.06.43.29.84.63,1.09.56.41,1.25.19.55,1.1-1.78,2.34-7.53,1.93-8.6-1.09-.07-.19-.22-1.09-.27-1.12-.2-.13-.57.53-.71.68-2.44,2.62-6.06,3.92-9.55,2.56-4.49-1.74-3.39-7.24-2.57-10.91.43-1.91.88-4.1,1.4-6.05.71-2.68,1.95-3.41,4.72-3.24s3.64,1.38,3.15,4.06c-.36,1.96-.89,4.03-1.34,5.98Z"/>
  <path class="cls-1" d="M122.12,47.83c.61.94.81,2.51.71,3.62-.43,4.63-6.11,5.61-9.88,5.66-1.76.23-3.53.07-5.29,0-.02.15.03.28.07.42.85,2.7,3.28,3.14,5.81,2.64,1.58-.31,2.87-1.13,3.94-2.29.63.11,1.29.27,1.85.6,1.32.79,1.8,2.54.88,3.83-2.71,3.81-10.48,3.87-14.37,2.13-7.34-3.28-5.58-13.53.22-17.52,4.14-2.85,12.97-3.84,16.07.91ZM116.16,50.48c-1.42-2.31-5.84-.72-7,1.28l-.84,1.45c1.78-.02,3.59.11,5.35-.17,1.1-.16,3.19-1.01,2.63-2.44-.03-.08-.13-.09-.15-.12Z"/>
  <path class="cls-1" d="M50.01,22.71c-1.35,1.29-3.46,2.01-5.29,2.33-2.81.5-5.66.35-8.51.32-.02.15.03.28.07.42.74,2.37,2.52,2.91,4.85,2.73,1.6-.12,3.18-.8,4.32-1.91.34-.33.2-.55.85-.47,2.81.34,3.8,3.3,1.71,5.2-3.24,2.96-9.98,3.01-13.81,1.26-6.76-3.09-5.6-12.5-.62-16.72,4-3.39,12.45-4.67,16.38-.68,1.73,1.76,1.87,5.79.05,7.52ZM41.9,17.58c-2.01.13-4.16,1.61-4.92,3.49-.1.25-.18.36.16.4.83.09,2.3.04,3.16,0,1.35-.07,4.95-.45,4.52-2.5-.24-1.17-1.94-1.45-2.93-1.38Z"/>
  <path class="cls-1" d="M139.59,15.43c1.22,1.42,1.54,3.37,1.05,5.19-.53,1.97-2.14,3.1-3.96,3.77-3.5,1.27-7.42,1-11.08.97-.03.02.13.46.17.54.1.21.39.74.5.92,1.52,2.53,5.93,1.93,7.99.4.29-.21.99-1.07,1.22-1.11.74-.14,2.38.78,2.77,1.43,1.64,2.76-1.99,5.03-4.24,5.66-6.59,1.86-14.91-.29-15.03-8.33-.07-4.42,2.52-8.48,6.41-10.56s11.09-2.5,14.2,1.11ZM131.44,17.58c-1.99.13-3.84,1.37-4.76,3.13-.15.29-.48.7,0,.76.8.09,2.33.04,3.16,0,1.21-.06,4.46-.45,4.54-2.07.08-1.47-1.81-1.89-2.95-1.81Z"/>
  <path class="cls-1" d="M73.2,16.85c1.35,2.73-1.3,5.38-4.05,5.13-.83-.07-.64-.66-.95-1.3-1.04-2.14-4.13-2.31-5.99-1.2-3.26,1.94-3.48,7.83.94,8.2,1.89.16,3.17-.46,4.38-1.83.35-.39.09-.51.83-.38,1.02.17,2.31.96,2.7,1.95.13.34.09.54.15.81.02.07.26.15.15.6-.01.06-.13.04-.15.1-1.45,5.45-9.82,5.7-14.04,3.58-7.04-3.55-5.47-13.38.21-17.49,4.28-3.1,13.19-3.51,15.82,1.82Z"/>
  <path class="cls-1" d="M100.63,50.85c-.4.51-1.29,1.33-1.87,1.62-.1.05-.7.28-.77.29-.18.01-.8-.62-1.11-.77-2.04-.96-4.11-.24-5.19,1.67-1.31,2.34-1.5,5.43-2.17,8.03-.47,1.81-1.23,3.37-3.32,3.51-2.58.18-5.1-.23-4.75-3.4.26-2.36,1.14-5,1.64-7.29.66-3.03,1.22-6.16,2-9.1.16-.38,1.24-.52,1.63-.55,2.09-.15,4.03.54,4.72,2.64.04.12.12,1.06.35.89.03-.02.23-.56.32-.7,1.44-2.34,4.22-3.79,6.97-2.94s3.13,4.05,1.55,6.09Z"/>
  <path class="cls-1" d="M110.4,20.99c-.96,1.02-1.31,2.13-1.66,3.48-.51,1.91-.79,3.94-1.34,5.87-.71,2.51-1.95,3.31-4.6,3.13-2.28-.16-3.66-1.02-3.33-3.48.18-1.33.63-3.65,1.01-4.92,1.09-3.57,1.52-7.52,2.53-11.13.13-.47.24-.57.73-.7,2.32-.63,5.08.13,5.75,2.66.04.16.09.79.11.83.12.15.13-.07.16-.11,1.53-2.54,3.5-4.39,6.77-3.77,4.51.85,3.47,6.62-.14,8-.73.28-.49.06-.97-.29-1.6-1.19-3.67-1.01-5.02.42Z"/>
  <path class="cls-1" d="M137.16,63.78c-.52.34-1.41,1.14-1.79.25l-.03-7.36-8.2-3.25c-.79-.25-1.26-.87-.32-1.35s2.29-.87,3.3-1.28c7.52-3.02,15.04-6.08,22.59-9.02.48-.19,2.15-.92,2.52-.94.55-.03.68.28.63.78-.06.6-.37,1.68-.53,2.31-.47,1.93-1.02,4-1.5,5.99-.32.03-.46.42-.08.45-.23.99-.52,1.89-.75,2.85-.28,0-.52.75-.15.75-.3,1.27-.6,2.55-.9,3.83-.28,0-.52.75-.15.75-.24.99-.51,1.89-.75,2.85-.32.03-.46.42-.08.45-.1.4-.2.8-.3,1.2-.34-.07-.32.29-.23.53-.03.02-.03.11-.12.14-.33.1-.75-.14-1.05-.27-1.88-.81-3.74-2.04-5.61-2.88-.17-.08-.36-.15-.54-.21l-5.3,3.11c-.09.06-.19.04-.29.04-.18,0-.55-.18-.38.3ZM148.66,44.57c-.08-.31-.58-.05-.38.15-.05.02-.15.16-.25.16l-1.63.59c-.08-.31-.58-.05-.38.15-.05.02-.15.16-.25.17l-1.63.58c-.08-.31-.58-.05-.38.15-.04.02-.12.11-.23.15-.02-.36-.39-.25-.45.04l.08.04-1.05.49-.82.27c-.08-.31-.58-.05-.38.15-1.46.71-3.01,1.2-4.51,1.8-.08-.31-.58-.05-.38.15-1.57.63-3.16,1.25-4.73,1.88-.08-.31-.58-.05-.38.15-.74.3-1.52.59-2.25.9-.22-.41-.68.14-.3.34.12.06.2-.04.22-.04.11.01.18,0,.3.04,2.02.57,4.32,1.87,6.37,2.57.18.06.46.2.64.15,5.13-3.96,10.29-7.88,15.38-11.88.02-.11,0-.13-.11-.11-.77.18-1.69.85-2.52.97ZM150.46,47.35c-3.07,3.36-6.21,6.63-9.32,9.94-.16.17-.26.38-.45.53l9.02,4.43,4.43-18.54v-.11c-.08-.02-.1,0-.15.04-.13.07-.99.97-1.16,1.16-.69.73-1.39,1.45-2.06,2.18-.24-.2-.52.18-.3.38ZM144.98,49.98c-.28-.05-.65.07-.45.38-1.3,1-2.61,2-3.91,3-.19-.22-.57.06-.38.3-1.04.8-2.13,1.59-3.15,2.4-.06-.14-.24-.08-.35,0-.18.13-.02.28-.03.31-.03.12-.14.15-.16.41-.12,1.57.1,3.29,0,4.88l.15.04c.27-.5.57-1.01.88-1.48.87-1.31,1.56-2.37,2.62-3.54,2.57-2.86,5.27-5.59,7.89-8.4.11-.12,1.24-1.37,1.16-1.43l-.22.04c-1.28,1.13-2.71,2.08-4.06,3.11ZM141.97,59.66c-.36,0-1.81-.95-1.98-.89l-2.08,3.14.37-.04c1.16-.7,2.33-1.38,3.51-2.05.05-.03.21-.11.17-.16Z"/>
  <path class="cls-1" d="M152.86,53.95c-.37,0-.13-.76.15-.75-.06.23-.09.5-.15.75Z"/>
  <path class="cls-1" d="M151.81,58.53c-.37,0-.13-.76.15-.75-.06.23-.09.5-.15.75Z"/>
  <path class="cls-1" d="M150.69,63.03c-.07.29.11.26-.23.53-.09-.23-.12-.6.23-.53Z"/>
  <path class="cls-1" d="M151.06,61.38c-.03.13-.04.3-.08.45-.38-.03-.24-.42.08-.45Z"/>
  <path class="cls-1" d="M153.84,49.9c-.03.13-.04.29-.08.45-.38-.03-.24-.42.08-.45Z"/>
  <path class="cls-1" d="M137.54,63.48c-.07.19-.24.21-.38.3-.18-.48.19-.3.38-.3Z"/>
  <path class="cls-1" d="M128.68,52.53c-.18.08-.19.14-.08.3-.02,0-.11.1-.22.04-.38-.2.07-.75.3-.34Z"/>
  <path class="cls-1" d="M144.98,49.98c-.13.1-.29.25-.45.38-.19-.3.17-.42.45-.38Z"/>
  <path class="cls-1" d="M140.62,53.35c-.12.1-.25.2-.38.3-.2-.24.18-.52.38-.3Z"/>
  <path class="cls-1" d="M137.09,56.05c-.1.08-.18.28-.38.3,0-.02-.15-.17.03-.31.1-.08.28-.13.35,0Z"/>
  <path class="cls-1" d="M150.76,46.98l-.3.38c-.22-.19.06-.57.3-.38Z"/>
  <path class="cls-1" d="M141.3,47.5l-.15.12-.23.03c-.2-.2.3-.46.38-.15Z"/>
  <path class="cls-1" d="M143.55,46.67c-.11.04-.25.06-.38.08l-.08-.04c.06-.29.43-.4.45-.04Z"/>
  <path class="cls-1" d="M136.41,49.45c-.12.05-.25.1-.38.15-.2-.2.3-.46.38-.15Z"/>
  <path class="cls-1" d="M144.15,46.37c-.09.16-.27.11-.38.15-.2-.2.3-.46.38-.15Z"/>
  <path class="cls-1" d="M146.4,45.47c-.09.16-.27.11-.38.15-.2-.2.3-.46.38-.15Z"/>
  <path class="cls-1" d="M148.66,44.57c-.09.16-.27.11-.38.15-.2-.2.3-.46.38-.15Z"/>
  <path class="cls-1" d="M131.31,51.48c-.12.05-.26.1-.38.15-.2-.2.3-.46.38-.15Z"/>
</svg>